<svg xmlns="http://www.w3.org/2000/svg" xmlns:xlink="http://www.w3.org/1999/xlink" width="500" zoomAndPan="magnify" viewBox="0 0 375 374.999991" height="500" preserveAspectRatio="xMidYMid meet" version="1.0"><defs><g/><clipPath id="9ce206b141"><path d="M 104.199219 99.230469 L 213.699219 99.230469 L 213.699219 205.730469 L 104.199219 205.730469 Z M 104.199219 99.230469 " clip-rule="nonzero"/></clipPath><clipPath id="8f22af6197"><path d="M 158.945312 77.34375 L 275.875 77.34375 L 275.875 197.335938 L 158.945312 197.335938 Z M 158.945312 77.34375 " clip-rule="nonzero"/></clipPath><clipPath id="636992e15b"><path d="M 94 88 L 127.160156 88 L 127.160156 121.59375 L 94 121.59375 Z M 94 88 " clip-rule="nonzero"/></clipPath></defs><rect x="-37.5" width="450" fill="#ffffff" y="-37.499999" height="449.999989" fill-opacity="1"/><rect x="-37.5" width="450" fill="#ffffff" y="-37.499999" height="449.999989" fill-opacity="1"/><rect x="-37.5" width="450" fill="#ffede6" y="-37.499999" height="449.999989" fill-opacity="1"/><g clip-path="url(#9ce206b141)"><path fill="#ff7e93" d="M 189.972656 172.472656 C 191.609375 170.589844 193.199219 168.683594 194.679688 166.703125 C 196.152344 164.71875 197.558594 162.691406 198.832031 160.601562 C 200.117188 158.515625 201.292969 156.371094 202.324219 154.175781 C 203.367188 151.984375 204.277344 149.742188 205.035156 147.460938 C 206.578125 142.902344 207.511719 138.1875 207.890625 133.449219 C 207.984375 132.261719 208.042969 131.074219 208.0625 129.886719 L 208.070312 129.441406 L 208.074219 129.007812 C 208.070312 128.75 208.0625 128.460938 208.050781 128.191406 C 208.03125 127.636719 207.992188 127.089844 207.929688 126.542969 C 207.683594 124.367188 207.101562 122.257812 206.207031 120.316406 C 205.304688 118.371094 204.113281 116.578125 202.664062 115.023438 C 201.214844 113.464844 199.519531 112.144531 197.667969 111.097656 C 193.976562 108.976562 189.660156 107.996094 185.40625 108.175781 C 181.144531 108.328125 176.949219 109.652344 173.207031 111.84375 C 169.441406 114.011719 166.121094 117.042969 163.3125 120.558594 L 159.992188 124.71875 L 156.375 120.644531 C 153.976562 117.941406 151.296875 115.554688 148.363281 113.664062 C 146.898438 112.722656 145.371094 111.902344 143.800781 111.230469 C 142.234375 110.546875 140.621094 110.011719 138.984375 109.640625 C 135.714844 108.898438 132.339844 108.824219 129.140625 109.484375 C 125.945312 110.117188 122.921875 111.476562 120.425781 113.460938 C 117.925781 115.441406 115.96875 118.027344 114.765625 120.949219 C 114.160156 122.410156 113.746094 123.957031 113.527344 125.554688 C 113.421875 126.351562 113.359375 127.160156 113.34375 127.976562 C 113.339844 128.386719 113.34375 128.792969 113.359375 129.207031 L 113.375 129.511719 L 113.394531 129.882812 L 113.4375 130.523438 C 113.691406 134.074219 114.421875 137.636719 115.546875 141.113281 C 116.679688 144.589844 118.15625 148 119.9375 151.277344 C 121.71875 154.5625 123.800781 157.710938 126.074219 160.742188 C 128.351562 163.773438 130.871094 166.648438 133.527344 169.410156 C 136.1875 172.171875 139.035156 174.773438 141.996094 177.261719 C 144.953125 179.757812 148.058594 182.09375 151.25 184.328125 C 157.640625 188.789062 164.445312 192.734375 171.5 196.261719 C 175.027344 198.023438 178.625 199.671875 182.269531 201.234375 C 184.097656 202.003906 185.925781 202.777344 187.777344 203.507812 C 189.625 204.242188 191.484375 204.945312 193.351562 205.648438 C 191.394531 205.265625 189.445312 204.832031 187.5 204.363281 C 185.558594 203.894531 183.617188 203.40625 181.695312 202.855469 C 177.839844 201.773438 174.019531 200.53125 170.246094 199.144531 C 168.359375 198.449219 166.484375 197.71875 164.621094 196.949219 C 162.761719 196.175781 160.917969 195.359375 159.089844 194.507812 C 155.421875 192.8125 151.835938 190.929688 148.324219 188.898438 C 144.808594 186.863281 141.398438 184.636719 138.082031 182.25 C 134.773438 179.859375 131.597656 177.265625 128.554688 174.496094 C 125.511719 171.730469 122.65625 168.734375 119.984375 165.5625 C 117.3125 162.382812 114.867188 158.984375 112.714844 155.375 C 110.5625 151.765625 108.6875 147.945312 107.261719 143.910156 C 105.832031 139.886719 104.816406 135.65625 104.378906 131.304688 L 104.308594 130.464844 L 104.25 129.660156 C 104.21875 129.082031 104.203125 128.5 104.199219 127.917969 C 104.199219 126.75 104.265625 125.578125 104.402344 124.410156 C 104.679688 122.074219 105.25 119.746094 106.121094 117.527344 C 106.988281 115.304688 108.144531 113.1875 109.570312 111.265625 C 110.996094 109.347656 112.667969 107.617188 114.523438 106.128906 C 118.234375 103.144531 122.664062 101.136719 127.261719 100.210938 C 131.871094 99.292969 136.628906 99.441406 141.105469 100.492188 C 143.347656 101.011719 145.519531 101.75 147.59375 102.667969 C 149.664062 103.597656 151.628906 104.703125 153.484375 105.945312 C 157.195312 108.429688 160.4375 111.441406 163.242188 114.730469 L 156.304688 114.816406 C 159.8125 110.675781 164.050781 106.984375 169 104.320312 C 173.9375 101.667969 179.589844 100.125 185.300781 100.15625 C 191 100.1875 196.703125 101.816406 201.492188 104.914062 C 203.878906 106.46875 206.035156 108.386719 207.835938 110.589844 C 209.632812 112.792969 211.085938 115.277344 212.0625 117.929688 C 213.054688 120.578125 213.589844 123.371094 213.691406 126.140625 C 213.71875 126.832031 213.714844 127.523438 213.691406 128.210938 C 213.675781 128.5625 213.65625 128.890625 213.628906 129.25 L 213.585938 129.75 L 213.535156 130.230469 C 213.402344 131.519531 213.226562 132.800781 213.015625 134.078125 C 212.1875 139.1875 210.667969 144.167969 208.554688 148.839844 C 207.492188 151.171875 206.28125 153.429688 204.945312 155.597656 C 203.597656 157.757812 202.132812 159.832031 200.554688 161.804688 C 198.972656 163.773438 197.296875 165.65625 195.519531 167.425781 C 193.746094 169.199219 191.902344 170.890625 189.972656 172.472656 " fill-opacity="1" fill-rule="nonzero"/></g><g clip-path="url(#8f22af6197)"><path fill="#ff7e93" d="M 265.351562 111.164062 C 265.339844 111.09375 265.328125 111.027344 265.316406 110.957031 C 264.089844 103.28125 260.171875 96.179688 253.710938 91.71875 C 252.871094 91.136719 251.996094 90.605469 251.089844 90.128906 C 251.054688 90.109375 251.019531 90.089844 250.984375 90.074219 C 243.460938 86.144531 234.222656 85.921875 226.316406 89.011719 C 220.726562 91.195312 215.292969 95.011719 209.34375 94.226562 C 203.90625 93.507812 199.804688 89.152344 195.214844 86.148438 C 184.378906 79.066406 169 79.851562 158.945312 88.003906 C 159.226562 87.777344 159.472656 87.332031 159.714844 87.039062 C 160 86.695312 160.289062 86.359375 160.585938 86.03125 C 161.175781 85.378906 161.796875 84.753906 162.457031 84.175781 C 163.816406 82.984375 165.34375 82.039062 166.96875 81.261719 C 168.167969 80.6875 169.40625 80.203125 170.671875 79.792969 C 171.96875 79.371094 173.296875 79.066406 174.644531 78.871094 C 181.476562 77.882812 188.671875 79.207031 194.585938 82.808594 C 198.273438 85.054688 201.726562 88.203125 206.03125 88.589844 C 211.285156 89.058594 215.824219 85.3125 220.339844 82.589844 C 229.675781 76.96875 241.539062 75.667969 251.683594 79.652344 C 263.625 84.347656 268.539062 92.140625 270.59375 95.5 C 282.703125 115.28125 271.949219 139.117188 258.789062 155.34375 C 256.925781 157.640625 254.96875 159.863281 252.9375 162.015625 C 246.953125 168.355469 240.480469 174.230469 233.675781 179.675781 C 227.058594 184.972656 220.105469 190.304688 212.714844 194.480469 C 211.667969 195.070312 210.660156 195.734375 209.59375 196.289062 C 208.003906 197.117188 206.292969 197.59375 204.511719 197.191406 C 202.765625 196.796875 201.234375 195.804688 199.660156 195 C 191.703125 190.933594 183.933594 186.390625 176.777344 181.035156 C 175.34375 179.960938 173.941406 178.855469 172.566406 177.714844 C 172.460938 177.628906 172.359375 177.542969 172.257812 177.457031 C 170.226562 175.757812 168.261719 173.984375 166.367188 172.140625 C 166.367188 172.140625 171.585938 175.835938 173.984375 177.472656 C 179.9375 181.53125 183.167969 182.5 187.925781 185.257812 C 191.929688 187.578125 200.554688 190.796875 205.179688 190.542969 C 209.949219 190.28125 231.808594 171.886719 238.449219 165.910156 C 245.386719 159.671875 251.214844 152.914062 256.40625 145.125 C 261.179688 137.96875 264.65625 129.769531 265.546875 121.164062 C 265.890625 117.839844 265.859375 114.46875 265.351562 111.164062 " fill-opacity="1" fill-rule="nonzero"/></g><g clip-path="url(#636992e15b)"><path fill="#ff7e93" d="M 94.871094 121.601562 C 91.917969 103.839844 109.382812 86.359375 127.148438 89.320312 C 110.414062 91.441406 96.972656 104.859375 94.871094 121.601562 Z M 94.871094 121.601562 " fill-opacity="1" fill-rule="nonzero"/></g><g fill="#242757" fill-opacity="1"><g transform="translate(115.136357, 272.904488)"><g><path d="M 14.28125 -24.203125 C 16.070312 -24.203125 17.601562 -24.003906 18.875 -23.609375 C 20.144531 -23.210938 21.320312 -22.609375 22.40625 -21.796875 C 22.613281 -21.640625 22.804688 -21.414062 22.984375 -21.125 C 23.160156 -20.84375 23.25 -20.5 23.25 -20.09375 C 23.25 -19.53125 23.050781 -19.039062 22.65625 -18.625 C 22.257812 -18.21875 21.769531 -18.015625 21.1875 -18.015625 C 20.914062 -18.015625 20.675781 -18.0625 20.46875 -18.15625 C 20.257812 -18.25 20.066406 -18.363281 19.890625 -18.5 C 19.117188 -19.0625 18.285156 -19.507812 17.390625 -19.84375 C 16.492188 -20.1875 15.398438 -20.359375 14.109375 -20.359375 C 13.023438 -20.359375 12.007812 -20.128906 11.0625 -19.671875 C 10.125 -19.222656 9.304688 -18.617188 8.609375 -17.859375 C 7.921875 -17.109375 7.378906 -16.222656 6.984375 -15.203125 C 6.585938 -14.179688 6.390625 -13.101562 6.390625 -11.96875 L 6.390625 -11.90625 C 6.390625 -10.675781 6.582031 -9.539062 6.96875 -8.5 C 7.351562 -7.457031 7.898438 -6.5625 8.609375 -5.8125 C 9.328125 -5.0625 10.175781 -4.472656 11.15625 -4.046875 C 12.144531 -3.617188 13.253906 -3.40625 14.484375 -3.40625 C 15.640625 -3.40625 16.703125 -3.566406 17.671875 -3.890625 C 18.648438 -4.222656 19.503906 -4.660156 20.234375 -5.203125 L 20.234375 -9.65625 L 15.53125 -9.65625 C 15.007812 -9.65625 14.566406 -9.820312 14.203125 -10.15625 C 13.847656 -10.5 13.671875 -10.929688 13.671875 -11.453125 C 13.671875 -11.972656 13.847656 -12.410156 14.203125 -12.765625 C 14.566406 -13.117188 15.007812 -13.296875 15.53125 -13.296875 L 22.171875 -13.296875 C 22.753906 -13.296875 23.25 -13.085938 23.65625 -12.671875 C 24.070312 -12.265625 24.28125 -11.769531 24.28125 -11.1875 L 24.28125 -4.828125 C 24.28125 -3.671875 23.789062 -2.785156 22.8125 -2.171875 C 21.789062 -1.492188 20.570312 -0.894531 19.15625 -0.375 C 17.738281 0.144531 16.132812 0.40625 14.34375 0.40625 C 12.488281 0.40625 10.800781 0.09375 9.28125 -0.53125 C 7.757812 -1.15625 6.460938 -2.015625 5.390625 -3.109375 C 4.316406 -4.210938 3.484375 -5.507812 2.890625 -7 C 2.296875 -8.5 2 -10.109375 2 -11.828125 L 2 -11.90625 C 2 -13.582031 2.300781 -15.160156 2.90625 -16.640625 C 3.507812 -18.128906 4.351562 -19.429688 5.4375 -20.546875 C 6.53125 -21.671875 7.828125 -22.5625 9.328125 -23.21875 C 10.835938 -23.875 12.488281 -24.203125 14.28125 -24.203125 Z M 14.28125 -24.203125 "/></g></g></g><g fill="#242757" fill-opacity="1"><g transform="translate(144.20331, 272.904488)"><g><path d="M 4.796875 -23.96875 C 5.378906 -23.96875 5.867188 -23.769531 6.265625 -23.375 C 6.671875 -22.976562 6.875 -22.484375 6.875 -21.890625 L 6.875 -10.265625 C 6.875 -8.003906 7.394531 -6.3125 8.4375 -5.1875 C 9.476562 -4.0625 10.960938 -3.5 12.890625 -3.5 C 14.742188 -3.5 16.203125 -4.046875 17.265625 -5.140625 C 18.335938 -6.242188 18.875 -7.894531 18.875 -10.09375 L 18.875 -21.890625 C 18.875 -22.484375 19.078125 -22.976562 19.484375 -23.375 C 19.890625 -23.769531 20.390625 -23.96875 20.984375 -23.96875 C 21.566406 -23.96875 22.054688 -23.769531 22.453125 -23.375 C 22.847656 -22.976562 23.046875 -22.484375 23.046875 -21.890625 L 23.046875 -10.296875 C 23.046875 -8.535156 22.800781 -6.984375 22.3125 -5.640625 C 21.832031 -4.304688 21.148438 -3.191406 20.265625 -2.296875 C 19.378906 -1.398438 18.304688 -0.726562 17.046875 -0.28125 C 15.785156 0.15625 14.375 0.375 12.8125 0.375 C 11.269531 0.375 9.875 0.15625 8.625 -0.28125 C 7.382812 -0.726562 6.320312 -1.394531 5.4375 -2.28125 C 4.550781 -3.164062 3.867188 -4.257812 3.390625 -5.5625 C 2.921875 -6.863281 2.6875 -8.375 2.6875 -10.09375 L 2.6875 -21.890625 C 2.6875 -22.484375 2.890625 -22.976562 3.296875 -23.375 C 3.703125 -23.769531 4.203125 -23.96875 4.796875 -23.96875 Z M 4.796875 -23.96875 "/></g></g></g><g fill="#242757" fill-opacity="1"><g transform="translate(172.352366, 272.904488)"><g><path d="M 3.0625 -1.875 L 3.0625 -21.828125 C 3.0625 -22.421875 3.265625 -22.921875 3.671875 -23.328125 C 4.078125 -23.734375 4.578125 -23.9375 5.171875 -23.9375 L 5.609375 -23.9375 C 6.066406 -23.9375 6.453125 -23.828125 6.765625 -23.609375 C 7.078125 -23.398438 7.335938 -23.132812 7.546875 -22.8125 L 14.75 -11.53125 L 22 -22.84375 C 22.445312 -23.570312 23.082031 -23.9375 23.90625 -23.9375 L 24.34375 -23.9375 C 24.9375 -23.9375 25.4375 -23.734375 25.84375 -23.328125 C 26.25 -22.921875 26.453125 -22.421875 26.453125 -21.828125 L 26.453125 -1.90625 C 26.453125 -1.3125 26.25 -0.816406 25.84375 -0.421875 C 25.4375 -0.0234375 24.9375 0.171875 24.34375 0.171875 C 23.78125 0.171875 23.289062 -0.03125 22.875 -0.4375 C 22.46875 -0.84375 22.265625 -1.332031 22.265625 -1.90625 L 22.265625 -16.1875 L 16.453125 -7.453125 C 16.222656 -7.109375 15.96875 -6.835938 15.6875 -6.640625 C 15.40625 -6.453125 15.070312 -6.359375 14.6875 -6.359375 C 14.300781 -6.359375 13.972656 -6.453125 13.703125 -6.640625 C 13.429688 -6.835938 13.179688 -7.109375 12.953125 -7.453125 L 7.171875 -16.109375 L 7.171875 -1.875 C 7.171875 -1.28125 6.972656 -0.789062 6.578125 -0.40625 C 6.179688 -0.0195312 5.6875 0.171875 5.09375 0.171875 C 4.507812 0.171875 4.023438 -0.0195312 3.640625 -0.40625 C 3.253906 -0.789062 3.0625 -1.28125 3.0625 -1.875 Z M 3.0625 -1.875 "/></g></g></g><g fill="#242757" fill-opacity="1"><g transform="translate(204.275, 272.904488)"><g><path d="M 3.0625 -1.875 L 3.0625 -21.828125 C 3.0625 -22.421875 3.265625 -22.921875 3.671875 -23.328125 C 4.078125 -23.734375 4.578125 -23.9375 5.171875 -23.9375 L 5.609375 -23.9375 C 6.066406 -23.9375 6.453125 -23.828125 6.765625 -23.609375 C 7.078125 -23.398438 7.335938 -23.132812 7.546875 -22.8125 L 14.75 -11.53125 L 22 -22.84375 C 22.445312 -23.570312 23.082031 -23.9375 23.90625 -23.9375 L 24.34375 -23.9375 C 24.9375 -23.9375 25.4375 -23.734375 25.84375 -23.328125 C 26.25 -22.921875 26.453125 -22.421875 26.453125 -21.828125 L 26.453125 -1.90625 C 26.453125 -1.3125 26.25 -0.816406 25.84375 -0.421875 C 25.4375 -0.0234375 24.9375 0.171875 24.34375 0.171875 C 23.78125 0.171875 23.289062 -0.03125 22.875 -0.4375 C 22.46875 -0.84375 22.265625 -1.332031 22.265625 -1.90625 L 22.265625 -16.1875 L 16.453125 -7.453125 C 16.222656 -7.109375 15.96875 -6.835938 15.6875 -6.640625 C 15.40625 -6.453125 15.070312 -6.359375 14.6875 -6.359375 C 14.300781 -6.359375 13.972656 -6.453125 13.703125 -6.640625 C 13.429688 -6.835938 13.179688 -7.109375 12.953125 -7.453125 L 7.171875 -16.109375 L 7.171875 -1.875 C 7.171875 -1.28125 6.972656 -0.789062 6.578125 -0.40625 C 6.179688 -0.0195312 5.6875 0.171875 5.09375 0.171875 C 4.507812 0.171875 4.023438 -0.0195312 3.640625 -0.40625 C 3.253906 -0.789062 3.0625 -1.28125 3.0625 -1.875 Z M 3.0625 -1.875 "/></g></g></g><g fill="#242757" fill-opacity="1"><g transform="translate(236.197629, 272.904488)"><g><path d="M 1.09375 -21.96875 C 1.09375 -22.53125 1.296875 -23.003906 1.703125 -23.390625 C 2.109375 -23.773438 2.609375 -23.96875 3.203125 -23.96875 C 3.648438 -23.96875 4.035156 -23.851562 4.359375 -23.625 C 4.691406 -23.40625 4.984375 -23.101562 5.234375 -22.71875 L 11.859375 -13.15625 L 18.59375 -22.75 C 18.84375 -23.132812 19.125 -23.4375 19.4375 -23.65625 C 19.757812 -23.882812 20.148438 -24 20.609375 -24 C 21.210938 -24 21.703125 -23.800781 22.078125 -23.40625 C 22.453125 -23.007812 22.640625 -22.53125 22.640625 -21.96875 C 22.640625 -21.664062 22.582031 -21.390625 22.46875 -21.140625 C 22.351562 -20.898438 22.21875 -20.675781 22.0625 -20.46875 L 13.9375 -9.34375 L 13.9375 -1.90625 C 13.9375 -1.3125 13.734375 -0.816406 13.328125 -0.421875 C 12.921875 -0.0234375 12.421875 0.171875 11.828125 0.171875 C 11.242188 0.171875 10.753906 -0.0234375 10.359375 -0.421875 C 9.960938 -0.816406 9.765625 -1.3125 9.765625 -1.90625 L 9.765625 -9.25 L 1.5625 -20.5 C 1.425781 -20.707031 1.3125 -20.925781 1.21875 -21.15625 C 1.132812 -21.394531 1.09375 -21.664062 1.09375 -21.96875 Z M 1.09375 -21.96875 "/></g></g></g><g fill="#242757" fill-opacity="1"><g transform="translate(171.292838, 297.953769)"><g><path d="M 1.171875 -8.296875 C 1.171875 -8.515625 1.25 -8.703125 1.40625 -8.859375 C 1.5625 -9.015625 1.75 -9.09375 1.96875 -9.09375 L 4.765625 -9.09375 C 5.296875 -9.09375 5.773438 -9.019531 6.203125 -8.875 C 6.628906 -8.738281 6.988281 -8.535156 7.28125 -8.265625 C 7.582031 -7.992188 7.8125 -7.671875 7.96875 -7.296875 C 8.132812 -6.929688 8.21875 -6.519531 8.21875 -6.0625 L 8.21875 -6.03125 C 8.21875 -5.53125 8.117188 -5.082031 7.921875 -4.6875 C 7.734375 -4.300781 7.472656 -3.976562 7.140625 -3.71875 C 6.816406 -3.457031 6.429688 -3.257812 5.984375 -3.125 C 5.546875 -2.988281 5.078125 -2.921875 4.578125 -2.921875 L 2.765625 -2.921875 L 2.765625 -0.734375 C 2.765625 -0.503906 2.6875 -0.3125 2.53125 -0.15625 C 2.382812 -0.0078125 2.195312 0.0625 1.96875 0.0625 C 1.75 0.0625 1.5625 -0.0078125 1.40625 -0.15625 C 1.25 -0.3125 1.171875 -0.503906 1.171875 -0.734375 Z M 2.765625 -4.375 L 4.625 -4.375 C 5.226562 -4.375 5.707031 -4.523438 6.0625 -4.828125 C 6.414062 -5.128906 6.59375 -5.519531 6.59375 -6 L 6.59375 -6.015625 C 6.59375 -6.566406 6.414062 -6.972656 6.0625 -7.234375 C 5.707031 -7.503906 5.226562 -7.640625 4.625 -7.640625 L 2.765625 -7.640625 Z M 2.765625 -4.375 "/></g></g></g><g fill="#242757" fill-opacity="1"><g transform="translate(181.976196, 297.953769)"><g><path d="M 5.53125 -9.25 C 6.238281 -9.25 6.878906 -9.125 7.453125 -8.875 C 8.035156 -8.632812 8.535156 -8.300781 8.953125 -7.875 C 9.367188 -7.445312 9.691406 -6.945312 9.921875 -6.375 C 10.160156 -5.8125 10.28125 -5.210938 10.28125 -4.578125 L 10.28125 -4.546875 C 10.28125 -3.910156 10.160156 -3.304688 9.921875 -2.734375 C 9.691406 -2.171875 9.363281 -1.671875 8.9375 -1.234375 C 8.519531 -0.804688 8.019531 -0.46875 7.4375 -0.21875 C 6.851562 0.03125 6.210938 0.15625 5.515625 0.15625 C 4.804688 0.15625 4.160156 0.0351562 3.578125 -0.203125 C 3.003906 -0.453125 2.507812 -0.789062 2.09375 -1.21875 C 1.675781 -1.644531 1.347656 -2.140625 1.109375 -2.703125 C 0.878906 -3.273438 0.765625 -3.882812 0.765625 -4.53125 L 0.765625 -4.546875 C 0.765625 -5.191406 0.878906 -5.796875 1.109375 -6.359375 C 1.347656 -6.929688 1.679688 -7.429688 2.109375 -7.859375 C 2.535156 -8.285156 3.035156 -8.625 3.609375 -8.875 C 4.191406 -9.125 4.832031 -9.25 5.53125 -9.25 Z M 5.53125 -1.328125 C 5.988281 -1.328125 6.40625 -1.410156 6.78125 -1.578125 C 7.15625 -1.742188 7.476562 -1.96875 7.75 -2.25 C 8.019531 -2.539062 8.226562 -2.878906 8.375 -3.265625 C 8.53125 -3.660156 8.609375 -4.082031 8.609375 -4.53125 L 8.609375 -4.546875 C 8.609375 -4.992188 8.53125 -5.410156 8.375 -5.796875 C 8.226562 -6.191406 8.015625 -6.535156 7.734375 -6.828125 C 7.460938 -7.117188 7.140625 -7.347656 6.765625 -7.515625 C 6.390625 -7.691406 5.972656 -7.78125 5.515625 -7.78125 C 5.066406 -7.78125 4.648438 -7.695312 4.265625 -7.53125 C 3.890625 -7.363281 3.566406 -7.132812 3.296875 -6.84375 C 3.035156 -6.550781 2.828125 -6.207031 2.671875 -5.8125 C 2.515625 -5.425781 2.4375 -5.015625 2.4375 -4.578125 L 2.4375 -4.546875 C 2.4375 -4.109375 2.515625 -3.691406 2.671875 -3.296875 C 2.828125 -2.910156 3.039062 -2.566406 3.3125 -2.265625 C 3.582031 -1.972656 3.90625 -1.742188 4.28125 -1.578125 C 4.664062 -1.410156 5.082031 -1.328125 5.53125 -1.328125 Z M 5.53125 -1.328125 "/></g></g></g><g fill="#242757" fill-opacity="1"><g transform="translate(195.02483, 297.953769)"><g><path d="M 1.171875 -8.296875 C 1.171875 -8.515625 1.25 -8.703125 1.40625 -8.859375 C 1.5625 -9.015625 1.75 -9.09375 1.96875 -9.09375 L 4.765625 -9.09375 C 5.296875 -9.09375 5.773438 -9.019531 6.203125 -8.875 C 6.628906 -8.738281 6.988281 -8.535156 7.28125 -8.265625 C 7.582031 -7.992188 7.8125 -7.671875 7.96875 -7.296875 C 8.132812 -6.929688 8.21875 -6.519531 8.21875 -6.0625 L 8.21875 -6.03125 C 8.21875 -5.53125 8.117188 -5.082031 7.921875 -4.6875 C 7.734375 -4.300781 7.472656 -3.976562 7.140625 -3.71875 C 6.816406 -3.457031 6.429688 -3.257812 5.984375 -3.125 C 5.546875 -2.988281 5.078125 -2.921875 4.578125 -2.921875 L 2.765625 -2.921875 L 2.765625 -0.734375 C 2.765625 -0.503906 2.6875 -0.3125 2.53125 -0.15625 C 2.382812 -0.0078125 2.195312 0.0625 1.96875 0.0625 C 1.75 0.0625 1.5625 -0.0078125 1.40625 -0.15625 C 1.25 -0.3125 1.171875 -0.503906 1.171875 -0.734375 Z M 2.765625 -4.375 L 4.625 -4.375 C 5.226562 -4.375 5.707031 -4.523438 6.0625 -4.828125 C 6.414062 -5.128906 6.59375 -5.519531 6.59375 -6 L 6.59375 -6.015625 C 6.59375 -6.566406 6.414062 -6.972656 6.0625 -7.234375 C 5.707031 -7.503906 5.226562 -7.640625 4.625 -7.640625 L 2.765625 -7.640625 Z M 2.765625 -4.375 "/></g></g></g></svg>